<svg width="1200" height="1200" viewBox="0 0 1200 1200" fill="none" xmlns="http://www.w3.org/2000/svg">
<g clip-path="url(#clip0_13_15)">
<rect width="1200" height="1200" fill="white"/>
<g clip-path="url(#clip1_13_15)">
<g filter="url(#filter0_f_13_15)">
<mask id="mask0_13_15" style="mask-type:luminance" maskUnits="userSpaceOnUse" x="-1276" y="-650" width="3751" height="2500">
<path d="M-1275 -650V115.625V934.375V1850H-551.135H611.362H1761.36H2475V-650H-1275Z" fill="white"/>
</mask>
<g mask="url(#mask0_13_15)">
<g style="mix-blend-mode:darken">
<path d="M-260.51 1392.18C-163.635 1392.18 -66.7604 1392.18 30.1146 1392.18C30.1146 1315.88 30.1146 1239.58 30.1146 1163.28C-66.7604 1163.28 -163.635 1163.28 -260.51 1163.28C-260.51 1239.58 -260.51 1315.88 -260.51 1392.18Z" fill="#272E7B"/>
<path d="M-260.51 1163.28C-163.635 1163.28 -66.7604 1163.28 30.1146 1163.28C30.1146 1086.98 30.1146 1010.68 30.1146 934.373C-66.7604 934.373 -163.635 934.373 -260.51 934.373C-260.51 1010.68 -260.51 1086.98 -260.51 1163.28Z" fill="#2D338C"/>
<path d="M30.1147 1392.18C126.99 1392.18 223.865 1392.18 320.74 1392.18C320.74 1315.88 320.74 1239.58 320.74 1163.28C223.865 1163.28 126.99 1163.28 30.1147 1163.28C30.1147 1239.58 30.1147 1315.88 30.1147 1392.18Z" fill="#3A2984"/>
<path d="M30.1147 1163.28C126.99 1163.28 223.865 1163.28 320.74 1163.28C320.74 1086.98 320.74 1010.68 320.74 934.373C223.865 934.373 126.99 934.373 30.1147 934.373C30.1147 1010.68 30.1147 1086.98 30.1147 1163.28Z" fill="#46319B"/>
<path d="M320.74 1392.18C320.74 1315.88 320.74 1239.58 320.74 1163.28C369.177 1163.28 417.615 1163.28 466.052 1163.28C466.052 1239.58 466.052 1315.88 466.052 1392.18C417.615 1392.18 369.177 1392.18 320.74 1392.18Z" fill="#4C248B"/>
<path d="M466.052 1392.18C466.052 1315.88 466.052 1239.58 466.052 1163.28C514.49 1163.28 562.927 1163.28 611.365 1163.28C611.365 1239.58 611.365 1315.88 611.365 1392.18C562.927 1392.18 514.49 1392.18 466.052 1392.18Z" fill="#52228E"/>
<path d="M320.74 1163.28C320.74 1086.98 320.74 1010.68 320.74 934.373C369.177 934.373 417.615 934.373 466.052 934.373C466.052 1010.68 466.052 1086.98 466.052 1163.28C417.615 1163.28 369.177 1163.28 320.74 1163.28Z" fill="#5D2EA5"/>
<path d="M466.052 1163.28C466.052 1086.98 466.052 1010.68 466.052 934.373C514.49 934.373 562.927 934.373 611.365 934.373C611.365 1010.68 611.365 1086.98 611.365 1163.28C562.927 1163.28 514.49 1163.28 466.052 1163.28Z" fill="#642DA8"/>
<path d="M611.365 1392.18C707.199 1392.18 803.03 1392.18 898.864 1392.18C898.864 1315.88 898.864 1239.58 898.864 1163.28C803.03 1163.28 707.199 1163.28 611.365 1163.28C611.365 1239.58 611.365 1315.88 611.365 1392.18Z" fill="#54228E"/>
<path d="M611.365 1163.28C707.199 1163.28 803.03 1163.28 898.864 1163.28C898.864 1086.98 898.864 1010.68 898.864 934.373C803.03 934.373 707.199 934.373 611.365 934.373C611.365 1010.68 611.365 1086.98 611.365 1163.28Z" fill="#672CA9"/>
<path d="M898.865 1392.18C994.699 1392.18 1090.53 1392.18 1186.36 1392.18C1186.36 1315.88 1186.36 1239.58 1186.36 1163.28C1090.53 1163.28 994.699 1163.28 898.865 1163.28C898.865 1239.58 898.865 1315.88 898.865 1392.18Z" fill="#52228C"/>
<path d="M898.865 1163.28C994.699 1163.28 1090.53 1163.28 1186.36 1163.28C1186.36 1086.98 1186.36 1010.68 1186.36 934.373C1090.53 934.373 994.699 934.373 898.865 934.373C898.865 1010.68 898.865 1086.98 898.865 1163.28Z" fill="#652CA6"/>
<path d="M1186.36 1392.18C1282.2 1392.18 1378.03 1392.18 1473.86 1392.18C1473.86 1315.88 1473.86 1239.58 1473.86 1163.28C1378.03 1163.28 1282.2 1163.28 1186.36 1163.28C1186.36 1239.58 1186.36 1315.88 1186.36 1392.18Z" fill="#4E2285"/>
<path d="M1186.36 1163.28C1282.2 1163.28 1378.03 1163.28 1473.86 1163.28C1473.86 1086.98 1473.86 1010.68 1473.86 934.373C1378.03 934.373 1282.2 934.373 1186.36 934.373C1186.36 1010.68 1186.36 1086.98 1186.36 1163.28Z" fill="#5F299E"/>
<path d="M-260.51 934.372C-260.51 797.913 -260.51 661.457 -260.51 524.998C-163.635 524.998 -66.7604 524.998 30.1146 524.998C30.1146 661.457 30.1146 797.913 30.1146 934.372C-66.7604 934.372 -163.635 934.372 -260.51 934.372Z" fill="#2F3693"/>
<path d="M-260.51 524.998C-163.635 524.998 -66.7604 524.998 30.1146 524.998C30.1146 456.769 30.1146 388.541 30.1146 320.311C-66.7604 320.311 -163.635 320.311 -260.51 320.311C-260.51 388.541 -260.51 456.769 -260.51 524.998Z" fill="#2B3E92"/>
<path d="M-260.51 320.311C-163.635 320.311 -66.7604 320.311 30.1146 320.311C30.1146 252.082 30.1146 183.854 30.1146 115.624C-66.7604 115.624 -163.635 115.624 -260.51 115.624C-260.51 183.854 -260.51 252.082 -260.51 320.311Z" fill="#294291"/>
<path d="M30.1147 934.372C126.99 934.372 223.865 934.372 320.74 934.372C320.74 866.144 320.74 797.913 320.74 729.685C223.865 729.685 126.99 729.685 30.1147 729.685C30.1147 797.913 30.1147 866.144 30.1147 934.372Z" fill="#4A38A3"/>
<path d="M30.1147 729.685C126.99 729.685 223.865 729.685 320.74 729.685C320.74 661.457 320.74 593.228 320.74 524.998C223.865 524.998 126.99 524.998 30.1147 524.998C30.1147 593.228 30.1147 661.457 30.1147 729.685Z" fill="#473FA3"/>
<path d="M320.74 934.372C320.74 866.144 320.74 797.913 320.74 729.685C369.177 729.685 417.615 729.685 466.052 729.685C466.052 797.913 466.052 866.144 466.052 934.372C417.615 934.372 369.177 934.372 320.74 934.372Z" fill="#6238AE"/>
<path d="M466.052 934.372C466.052 866.144 466.052 797.913 466.052 729.685C514.49 729.685 562.927 729.685 611.365 729.685C611.365 797.913 611.365 866.144 611.365 934.372C562.927 934.372 514.49 934.372 466.052 934.372Z" fill="#6A38B1"/>
<path d="M320.74 729.685C320.74 661.457 320.74 593.228 320.74 524.998C369.177 524.998 417.615 524.998 466.052 524.998C466.052 593.228 466.052 661.457 466.052 729.685C417.615 729.685 369.177 729.685 320.74 729.685Z" fill="#5E44AE"/>
<path d="M466.052 729.685C466.052 661.457 466.052 593.228 466.052 524.998C514.49 524.998 562.927 524.998 611.365 524.998C611.365 593.228 611.365 661.457 611.365 729.685C562.927 729.685 514.49 729.685 466.052 729.685Z" fill="#6545B1"/>
<path d="M30.1147 524.998C126.99 524.998 223.865 524.998 320.74 524.998C320.74 456.769 320.74 388.541 320.74 320.311C223.865 320.311 126.99 320.311 30.1147 320.311C30.1147 388.541 30.1147 456.769 30.1147 524.998Z" fill="#4149A2"/>
<path d="M30.1147 320.311C126.99 320.311 223.865 320.311 320.74 320.311C320.74 252.082 320.74 183.854 320.74 115.624C223.865 115.624 126.99 115.624 30.1147 115.624C30.1147 183.854 30.1147 252.082 30.1147 320.311Z" fill="#3B519F"/>
<path d="M320.74 524.998C417.615 524.998 514.49 524.998 611.365 524.998C611.365 456.769 611.365 388.541 611.365 320.311C514.49 320.311 417.615 320.311 320.74 320.311C320.74 388.541 320.74 456.769 320.74 524.998Z" fill="#5452AC"/>
<path d="M320.74 320.311C417.615 320.311 514.49 320.311 611.365 320.311C611.365 252.082 611.365 183.854 611.365 115.624C514.49 115.624 417.615 115.624 320.74 115.624C320.74 183.854 320.74 252.082 320.74 320.311Z" fill="#4A5DA7"/>
<path d="M611.365 934.372C707.199 934.372 803.03 934.372 898.864 934.372C898.864 866.144 898.864 797.913 898.864 729.685C803.03 729.685 707.199 729.685 611.365 729.685C611.365 797.913 611.365 866.144 611.365 934.372Z" fill="#6D38B2"/>
<path d="M611.365 729.685C707.199 729.685 803.03 729.685 898.864 729.685C898.864 661.457 898.864 593.228 898.864 524.998C803.03 524.998 707.199 524.998 611.365 524.998C611.365 593.228 611.365 661.457 611.365 729.685Z" fill="#6846B2"/>
<path d="M898.865 934.372C994.699 934.372 1090.53 934.372 1186.36 934.372C1186.36 866.144 1186.36 797.913 1186.36 729.685C1090.53 729.685 994.699 729.685 898.865 729.685C898.865 797.913 898.865 866.144 898.865 934.372Z" fill="#6B36B0"/>
<path d="M898.865 729.685C994.699 729.685 1090.53 729.685 1186.36 729.685C1186.36 661.457 1186.36 593.228 1186.36 524.998C1090.53 524.998 994.699 524.998 898.865 524.998C898.865 593.228 898.865 661.457 898.865 729.685Z" fill="#6642B0"/>
<path d="M611.365 524.998C707.199 524.998 803.03 524.998 898.864 524.998C898.864 456.769 898.864 388.541 898.864 320.311C803.03 320.311 707.199 320.311 611.365 320.311C611.365 388.541 611.365 456.769 611.365 524.998Z" fill="#5C55B0"/>
<path d="M611.365 320.311C707.199 320.311 803.03 320.311 898.864 320.311C898.864 252.082 898.864 183.854 898.864 115.624C803.03 115.624 707.199 115.624 611.365 115.624C611.365 183.854 611.365 252.082 611.365 320.311Z" fill="#5063AA"/>
<path d="M898.865 524.998C994.699 524.998 1090.53 524.998 1186.36 524.998C1186.36 456.769 1186.36 388.541 1186.36 320.311C1090.53 320.311 994.699 320.311 898.865 320.311C898.865 388.541 898.865 456.769 898.865 524.998Z" fill="#5B51AE"/>
<path d="M898.865 320.311C994.699 320.311 1090.53 320.311 1186.36 320.311C1186.36 252.082 1186.36 183.854 1186.36 115.624C1090.53 115.624 994.699 115.624 898.865 115.624C898.865 183.854 898.865 252.082 898.865 320.311Z" fill="#505DA9"/>
<path d="M1186.36 934.372C1282.2 934.372 1378.03 934.372 1473.86 934.372C1473.86 866.144 1473.86 797.913 1473.86 729.685C1378.03 729.685 1282.2 729.685 1186.36 729.685C1186.36 797.913 1186.36 866.144 1186.36 934.372Z" fill="#6531AA"/>
<path d="M1186.36 729.685C1282.2 729.685 1378.03 729.685 1473.86 729.685C1473.86 661.457 1473.86 593.228 1473.86 524.998C1378.03 524.998 1282.2 524.998 1186.36 524.998C1186.36 593.228 1186.36 661.457 1186.36 729.685Z" fill="#613AAC"/>
<path d="M1186.36 524.998C1378.03 524.998 1569.7 524.998 1761.36 524.998C1761.36 456.769 1761.36 388.541 1761.36 320.311C1569.7 320.311 1378.03 320.311 1186.36 320.311C1186.36 388.541 1186.36 456.769 1186.36 524.998Z" fill="#5947AA"/>
<path d="M1186.36 320.311C1378.03 320.311 1569.7 320.311 1761.36 320.311C1761.36 252.082 1761.36 183.854 1761.36 115.624C1569.7 115.624 1378.03 115.624 1186.36 115.624C1186.36 183.854 1186.36 252.082 1186.36 320.311Z" fill="#5051A5"/>
<path d="M-260.51 115.624C-163.635 115.624 -66.7604 115.624 30.1146 115.624C30.1146 51.8223 30.1146 -11.9807 30.1146 -75.7822C-66.7604 -75.7822 -163.635 -75.7822 -260.51 -75.7822C-260.51 -11.9807 -260.51 51.8223 -260.51 115.624Z" fill="#284390"/>
<path d="M30.1147 115.624C126.99 115.624 223.865 115.624 320.74 115.624C320.74 51.8223 320.74 -11.9807 320.74 -75.7822C223.865 -75.7822 126.99 -75.7822 30.1147 -75.7822C30.1147 -11.9807 30.1147 51.8223 30.1147 115.624Z" fill="#38559A"/>
<path d="M320.74 115.624C417.615 115.624 514.49 115.624 611.365 115.624C611.365 51.8223 611.365 -11.9807 611.365 -75.7822C514.49 -75.7822 417.615 -75.7822 320.74 -75.7822C320.74 -11.9807 320.74 51.8223 320.74 115.624Z" fill="#45629F"/>
<path d="M611.365 115.624C707.199 115.624 803.03 115.624 898.864 115.624C898.864 51.8223 898.864 -11.9807 898.864 -75.7822C803.03 -75.7822 707.199 -75.7822 611.365 -75.7822C611.365 -11.9807 611.365 51.8223 611.365 115.624Z" fill="#4B68A0"/>
<path d="M898.865 115.624C994.699 115.624 1090.53 115.624 1186.36 115.624C1186.36 51.8223 1186.36 -11.9807 1186.36 -75.7822C1090.53 -75.7822 994.699 -75.7822 898.865 -75.7822C898.865 -11.9807 898.865 51.8223 898.865 115.624Z" fill="#4B63A0"/>
<path d="M1186.36 115.624C1282.2 115.624 1378.03 115.624 1473.86 115.624C1473.86 51.8223 1473.86 -11.9807 1473.86 -75.7822C1378.03 -75.7822 1282.2 -75.7822 1186.36 -75.7822C1186.36 -11.9807 1186.36 51.8223 1186.36 115.624Z" fill="#4A569F"/>
</g>
</g>
</g>
<g opacity="0.3">
<mask id="mask1_13_15" style="mask-type:luminance" maskUnits="userSpaceOnUse" x="-1276" y="-650" width="3751" height="2500">
<path d="M-1275 1850H2475V-650H-1275V1850Z" fill="white"/>
</mask>
<g mask="url(#mask1_13_15)">
<mask id="mask2_13_15" style="mask-type:luminance" maskUnits="userSpaceOnUse" x="-129" y="-129" width="1458" height="1458">
<path d="M-128.985 -128.984H1328.98V1328.98H-128.985V-128.984Z" fill="white"/>
</mask>
<g mask="url(#mask2_13_15)">
<path d="M1113.91 1113.91H86.0933V86.0938H1113.91V1113.91Z" stroke="white" stroke-width="1.33333" stroke-miterlimit="10"/>
<path d="M1156.74 1067.16L132.838 1156.74L43.2598 132.84L1067.16 43.2585L1156.74 1067.16Z" stroke="white" stroke-width="1.33333" stroke-miterlimit="10"/>
<path d="M1195.34 1016.86L183.139 1195.34L4.6604 183.139L1016.86 4.66093L1195.34 1016.86Z" stroke="white" stroke-width="1.33333" stroke-miterlimit="10"/>
<path d="M1229.4 963.387L236.614 1229.41L-29.4048 236.612L963.386 -29.4034L1229.4 963.387Z" stroke="white" stroke-width="1.33333" stroke-miterlimit="10"/>
<path d="M1258.68 907.148L292.853 1258.68L-58.6816 292.852L907.146 -58.6798L1258.68 907.148Z" stroke="white" stroke-width="1.33333" stroke-miterlimit="10"/>
<path d="M1282.94 848.571L351.428 1282.94L-82.9436 351.427L848.572 -82.9445L1282.94 848.571Z" stroke="white" stroke-width="1.33333" stroke-miterlimit="10"/>
<path d="M1302.01 788.103L411.897 1302.01L-102.009 411.897L788.103 -102.009L1302.01 788.103Z" stroke="white" stroke-width="1.33333" stroke-miterlimit="10"/>
<path d="M1315.73 726.203L473.798 1315.73L-115.733 473.796L726.201 -115.732L1315.73 726.203Z" stroke="white" stroke-width="1.33333" stroke-miterlimit="10"/>
<path d="M1324.01 663.342L536.658 1324.01L-124.008 536.658L663.342 -124.008L1324.01 663.342Z" stroke="white" stroke-width="1.33333" stroke-miterlimit="10"/>
<path d="M1326.77 600L599.999 1326.77L-126.773 600L599.999 -126.775L1326.77 600Z" stroke="white" stroke-width="1.33333" stroke-miterlimit="10"/>
<path d="M1324.01 536.657L663.342 1324.01L-124.008 663.342L536.658 -124.008L1324.01 536.657Z" stroke="white" stroke-width="1.33333" stroke-miterlimit="10"/>
<path d="M1315.73 473.797L726.201 1315.73L-115.733 726.203L473.798 -115.734L1315.73 473.797Z" stroke="white" stroke-width="1.33333" stroke-miterlimit="10"/>
<path d="M1302.01 411.897L788.103 1302.01L-102.009 788.103L411.897 -102.009L1302.01 411.897Z" stroke="white" stroke-width="1.33333" stroke-miterlimit="10"/>
<path d="M1282.94 351.429L848.572 1282.94L-82.9436 848.573L351.428 -82.943L1282.94 351.429Z" stroke="white" stroke-width="1.33333" stroke-miterlimit="10"/>
<path d="M1258.68 292.852L907.146 1258.68L-58.6816 907.148L292.853 -58.6827L1258.68 292.852Z" stroke="white" stroke-width="1.33333" stroke-miterlimit="10"/>
<path d="M1229.4 236.613L963.386 1229.4L-29.4048 963.388L236.614 -29.4059L1229.4 236.613Z" stroke="white" stroke-width="1.33333" stroke-miterlimit="10"/>
<path d="M1195.34 183.14L1016.86 1195.34L4.6604 1016.86L183.139 4.66142L1195.34 183.14Z" stroke="white" stroke-width="1.33333" stroke-miterlimit="10"/>
<path d="M1156.74 132.839L1067.16 1156.74L43.2598 1067.16L132.838 43.2575L1156.74 132.839Z" stroke="white" stroke-width="1.33333" stroke-miterlimit="10"/>
</g>
<mask id="mask3_13_15" style="mask-type:luminance" maskUnits="userSpaceOnUse" x="-432" y="-432" width="2064" height="2064">
<path d="M-431.244 -431.243H1631.24V1631.24H-431.244V-431.243Z" fill="white"/>
</mask>
<g mask="url(#mask3_13_15)">
<path d="M1327.64 1327.64H-127.638V-127.638H1327.64V1327.64Z" stroke="white" stroke-width="1.33333" stroke-miterlimit="10"/>
<path d="M1388.29 1261.45L-61.4515 1388.28L-188.286 -61.4495L1261.45 -188.287L1388.29 1261.45Z" stroke="white" stroke-width="1.33333" stroke-miterlimit="10"/>
<path d="M1442.94 1190.23L9.76968 1442.94L-242.937 9.77061L1190.23 -242.936L1442.94 1190.23Z" stroke="white" stroke-width="1.33333" stroke-miterlimit="10"/>
<path d="M1491.17 1114.52L85.4822 1491.17L-291.171 85.4826L1114.52 -291.171L1491.17 1114.52Z" stroke="white" stroke-width="1.33333" stroke-miterlimit="10"/>
<path d="M1532.62 1034.89L165.112 1532.62L-332.622 165.111L1034.89 -332.621L1532.62 1034.89Z" stroke="white" stroke-width="1.33333" stroke-miterlimit="10"/>
<path d="M1566.98 951.95L248.051 1566.98L-366.977 248.05L951.951 -366.975L1566.98 951.95Z" stroke="white" stroke-width="1.33333" stroke-miterlimit="10"/>
<path d="M1593.97 866.334L333.667 1593.97L-393.97 333.665L866.333 -393.969L1593.97 866.334Z" stroke="white" stroke-width="1.33333" stroke-miterlimit="10"/>
<path d="M1613.4 778.69L421.31 1613.4L-413.402 421.309L778.688 -413.401L1613.4 778.69Z" stroke="white" stroke-width="1.33333" stroke-miterlimit="10"/>
<path d="M1625.12 689.686L510.312 1625.12L-425.119 510.314L689.687 -425.12L1625.12 689.686Z" stroke="white" stroke-width="1.33333" stroke-miterlimit="10"/>
<path d="M1629.03 600L600 1629.03L-429.034 600L600 -429.034L1629.03 600Z" stroke="white" stroke-width="1.33333" stroke-miterlimit="10"/>
<path d="M1625.12 510.313L689.687 1625.12L-425.119 689.685L510.312 -425.118L1625.12 510.313Z" stroke="white" stroke-width="1.33333" stroke-miterlimit="10"/>
<path d="M1613.4 421.31L778.688 1613.4L-413.402 778.691L421.31 -413.403L1613.4 421.31Z" stroke="white" stroke-width="1.33333" stroke-miterlimit="10"/>
<path d="M1593.97 333.666L866.333 1593.97L-393.97 866.335L333.667 -393.971L1593.97 333.666Z" stroke="white" stroke-width="1.33333" stroke-miterlimit="10"/>
<path d="M1566.98 248.05L951.951 1566.97L-366.977 951.95L248.051 -366.975L1566.98 248.05Z" stroke="white" stroke-width="1.33333" stroke-miterlimit="10"/>
<path d="M1532.62 165.111L1034.89 1532.62L-332.622 1034.89L165.112 -332.623L1532.62 165.111Z" stroke="white" stroke-width="1.33333" stroke-miterlimit="10"/>
<path d="M1491.17 85.4825L1114.52 1491.17L-291.171 1114.52L85.4822 -291.171L1491.17 85.4825Z" stroke="white" stroke-width="1.33333" stroke-miterlimit="10"/>
<path d="M1442.94 9.77061L1190.23 1442.94L-242.937 1190.23L9.76968 -242.936L1442.94 9.77061Z" stroke="white" stroke-width="1.33333" stroke-miterlimit="10"/>
<path d="M1388.29 -61.4506L1261.45 1388.29L-188.286 1261.45L-61.4515 -188.285L1388.29 -61.4506Z" stroke="white" stroke-width="1.33333" stroke-miterlimit="10"/>
</g>
<mask id="mask4_13_15" style="mask-type:luminance" maskUnits="userSpaceOnUse" x="-857" y="-857" width="2914" height="2914">
<path d="M-856.138 -856.137H2056.12V2056.14H-856.138V-856.137Z" fill="white"/>
</mask>
<g mask="url(#mask4_13_15)">
<path d="M1628.08 1628.08H-428.084V-428.084H1628.08V1628.08Z" stroke="white" stroke-width="1.33333" stroke-miterlimit="10"/>
<path d="M1713.77 1534.57L-334.567 1713.77L-513.774 -334.568L1534.57 -513.774L1713.77 1534.57Z" stroke="white" stroke-width="1.33333" stroke-miterlimit="10"/>
<path d="M1790.99 1433.94L-233.94 1790.99L-590.987 -233.94L1433.94 -590.99L1790.99 1433.94Z" stroke="white" stroke-width="1.33333" stroke-miterlimit="10"/>
<path d="M1859.14 1326.96L-126.964 1859.14L-659.139 -126.964L1326.96 -659.139L1859.14 1326.96Z" stroke="white" stroke-width="1.33333" stroke-miterlimit="10"/>
<path d="M1917.71 1214.46L-14.4564 1917.71L-717.706 -14.4563L1214.46 -717.706L1917.71 1214.46Z" stroke="white" stroke-width="1.33333" stroke-miterlimit="10"/>
<path d="M1966.24 1097.27L102.727 1966.24L-766.245 102.726L1097.27 -766.245L1966.24 1097.27Z" stroke="white" stroke-width="1.33333" stroke-miterlimit="10"/>
<path d="M2004.39 976.304L223.696 2004.39L-804.385 223.695L976.305 -804.386L2004.39 976.304Z" stroke="white" stroke-width="1.33333" stroke-miterlimit="10"/>
<path d="M2031.84 852.472L347.527 2031.84L-831.839 347.528L852.471 -831.841L2031.84 852.472Z" stroke="white" stroke-width="1.33333" stroke-miterlimit="10"/>
<path d="M2048.39 726.718L473.283 2048.4L-848.395 473.281L726.717 -848.394L2048.39 726.718Z" stroke="white" stroke-width="1.33333" stroke-miterlimit="10"/>
<path d="M2053.93 600L600 2053.93L-853.928 600L600 -853.928L2053.93 600Z" stroke="white" stroke-width="1.33333" stroke-miterlimit="10"/>
<path d="M2048.39 473.282L726.717 2048.39L-848.395 726.719L473.283 -848.396L2048.39 473.282Z" stroke="white" stroke-width="1.33333" stroke-miterlimit="10"/>
<path d="M2031.84 347.528L852.471 2031.84L-831.839 852.472L347.527 -831.841L2031.84 347.528Z" stroke="white" stroke-width="1.33333" stroke-miterlimit="10"/>
<path d="M2004.39 223.695L976.305 2004.39L-804.385 976.305L223.696 -804.386L2004.39 223.695Z" stroke="white" stroke-width="1.33333" stroke-miterlimit="10"/>
<path d="M1966.24 102.727L1097.27 1966.25L-766.245 1097.27L102.727 -766.244L1966.24 102.727Z" stroke="white" stroke-width="1.33333" stroke-miterlimit="10"/>
<path d="M1917.71 -14.4568L1214.46 1917.71L-717.706 1214.46L-14.4564 -717.707L1917.71 -14.4568Z" stroke="white" stroke-width="1.33333" stroke-miterlimit="10"/>
<path d="M1859.14 -126.964L1326.96 1859.14L-659.139 1326.96L-126.964 -659.139L1859.14 -126.964Z" stroke="white" stroke-width="1.33333" stroke-miterlimit="10"/>
<path d="M1790.99 -233.939L1433.94 1790.99L-590.987 1433.94L-233.94 -590.989L1790.99 -233.939Z" stroke="white" stroke-width="1.33333" stroke-miterlimit="10"/>
<path d="M1713.77 -334.567L1534.57 1713.77L-513.774 1534.57L-334.567 -513.773L1713.77 -334.567Z" stroke="white" stroke-width="1.33333" stroke-miterlimit="10"/>
</g>
<mask id="mask5_13_15" style="mask-type:luminance" maskUnits="userSpaceOnUse" x="-1458" y="-1458" width="4116" height="4116">
<path d="M-1457.91 -1457.91H2657.91V2657.92H-1457.91V-1457.91Z" fill="white"/>
</mask>
<g mask="url(#mask5_13_15)">
<path d="M2053.6 2053.6H-853.604V-853.603H2053.6V2053.6Z" stroke="white" stroke-width="1.33333" stroke-miterlimit="10"/>
<path d="M2174.76 1921.38L-721.383 2174.76L-974.761 -721.381L1921.38 -974.762L2174.76 1921.38Z" stroke="white" stroke-width="1.33333" stroke-miterlimit="10"/>
<path d="M2283.93 1779.1L-579.103 2283.94L-1083.93 -579.102L1779.1 -1083.93L2283.93 1779.1Z" stroke="white" stroke-width="1.33333" stroke-miterlimit="10"/>
<path d="M2380.29 1627.85L-427.852 2380.29L-1180.29 -427.851L1627.85 -1180.29L2380.29 1627.85Z" stroke="white" stroke-width="1.33333" stroke-miterlimit="10"/>
<path d="M2463.1 1468.78L-268.777 2463.1L-1263.1 -268.778L1468.78 -1263.1L2463.1 1468.78Z" stroke="white" stroke-width="1.33333" stroke-miterlimit="10"/>
<path d="M2531.73 1303.09L-103.092 2531.73L-1331.73 -103.092L1303.09 -1331.73L2531.73 1303.09Z" stroke="white" stroke-width="1.33333" stroke-miterlimit="10"/>
<path d="M2585.66 1132.06L67.9452 2585.66L-1385.66 67.9434L1132.05 -1385.66L2585.66 1132.06Z" stroke="white" stroke-width="1.33333" stroke-miterlimit="10"/>
<path d="M2624.47 956.969L243.03 2624.47L-1424.47 243.032L956.97 -1424.47L2624.47 956.969Z" stroke="white" stroke-width="1.33333" stroke-miterlimit="10"/>
<path d="M2647.88 779.166L420.831 2647.88L-1447.88 420.832L779.166 -1447.88L2647.88 779.166Z" stroke="white" stroke-width="1.33333" stroke-miterlimit="10"/>
<path d="M2655.7 600L599.998 2655.71L-1455.7 600L599.998 -1455.7L2655.7 600Z" stroke="white" stroke-width="1.33333" stroke-miterlimit="10"/>
<path d="M2647.88 420.834L779.166 2647.88L-1447.88 779.168L420.831 -1447.88L2647.88 420.834Z" stroke="white" stroke-width="1.33333" stroke-miterlimit="10"/>
<path d="M2624.47 243.031L956.97 2624.47L-1424.47 956.968L243.03 -1424.47L2624.47 243.031Z" stroke="white" stroke-width="1.33333" stroke-miterlimit="10"/>
<path d="M2585.66 67.9445L1132.05 2585.66L-1385.66 1132.06L67.9452 -1385.66L2585.66 67.9445Z" stroke="white" stroke-width="1.33333" stroke-miterlimit="10"/>
<path d="M2531.73 -103.093L1303.09 2531.73L-1331.73 1303.09L-103.092 -1331.73L2531.73 -103.093Z" stroke="white" stroke-width="1.33333" stroke-miterlimit="10"/>
<path d="M2463.1 -268.778L1468.78 2463.1L-1263.1 1468.78L-268.777 -1263.1L2463.1 -268.778Z" stroke="white" stroke-width="1.33333" stroke-miterlimit="10"/>
<path d="M2380.29 -427.852L1627.85 2380.29L-1180.29 1627.85L-427.852 -1180.29L2380.29 -427.852Z" stroke="white" stroke-width="1.33333" stroke-miterlimit="10"/>
<path d="M2283.93 -579.103L1779.1 2283.93L-1083.93 1779.1L-579.103 -1083.93L2283.93 -579.103Z" stroke="white" stroke-width="1.33333" stroke-miterlimit="10"/>
<path d="M2174.76 -721.381L1921.38 2174.76L-974.761 1921.38L-721.383 -974.759L2174.76 -721.381Z" stroke="white" stroke-width="1.33333" stroke-miterlimit="10"/>
</g>
<mask id="mask6_13_15" style="mask-type:luminance" maskUnits="userSpaceOnUse" x="-2312" y="-2312" width="5824" height="5824">
<path d="M-2311.33 -2311.34H3511.34V3511.33H-2311.33V-2311.34Z" fill="white"/>
</mask>
<g mask="url(#mask6_13_15)">
<path d="M2657.06 2657.06H-1457.06V-1457.06H2657.06V2657.06Z" stroke="white" stroke-width="1.33333" stroke-miterlimit="10"/>
<path d="M2828.51 2469.95L-1269.95 2828.51L-1628.52 -1269.95L2469.95 -1628.52L2828.51 2469.95Z" stroke="white" stroke-width="1.33333" stroke-miterlimit="10"/>
<path d="M2983.01 2268.6L-1068.6 2983.01L-1783.01 -1068.6L2268.6 -1783.01L2983.01 2268.6Z" stroke="white" stroke-width="1.33333" stroke-miterlimit="10"/>
<path d="M3119.37 2054.56L-854.56 3119.37L-1919.37 -854.559L2054.56 -1919.37L3119.37 2054.56Z" stroke="white" stroke-width="1.33333" stroke-miterlimit="10"/>
<path d="M3236.56 1829.45L-629.448 3236.56L-2036.56 -629.447L1829.45 -2036.56L3236.56 1829.45Z" stroke="white" stroke-width="1.33333" stroke-miterlimit="10"/>
<path d="M3333.68 1594.98L-394.978 3333.68L-2133.68 -394.978L1594.98 -2133.68L3333.68 1594.98Z" stroke="white" stroke-width="1.33333" stroke-miterlimit="10"/>
<path d="M3409.99 1352.94L-152.934 3409.99L-2209.99 -152.936L1352.93 -2210L3409.99 1352.94Z" stroke="white" stroke-width="1.33333" stroke-miterlimit="10"/>
<path d="M3464.92 1105.16L94.8358 3464.92L-2264.92 94.8354L1105.16 -2264.92L3464.92 1105.16Z" stroke="white" stroke-width="1.33333" stroke-miterlimit="10"/>
<path d="M3498.05 853.546L346.452 3498.05L-2298.05 346.452L853.546 -2298.05L3498.05 853.546Z" stroke="white" stroke-width="1.33333" stroke-miterlimit="10"/>
<path d="M3509.12 600L600 3509.12L-2309.12 600L600 -2309.12L3509.12 600Z" stroke="white" stroke-width="1.33333" stroke-miterlimit="10"/>
<path d="M3498.05 346.453L853.546 3498.05L-2298.05 853.547L346.452 -2298.05L3498.05 346.453Z" stroke="white" stroke-width="1.33333" stroke-miterlimit="10"/>
<path d="M3464.92 94.8364L1105.16 3464.92L-2264.92 1105.16L94.8358 -2264.92L3464.92 94.8364Z" stroke="white" stroke-width="1.33333" stroke-miterlimit="10"/>
<path d="M3409.99 -152.936L1352.93 3409.99L-2209.99 1352.94L-152.934 -2210L3409.99 -152.936Z" stroke="white" stroke-width="1.33333" stroke-miterlimit="10"/>
<path d="M3333.68 -394.978L1594.98 3333.68L-2133.68 1594.98L-394.978 -2133.68L3333.68 -394.978Z" stroke="white" stroke-width="1.33333" stroke-miterlimit="10"/>
<path d="M3236.56 -629.448L1829.45 3236.56L-2036.56 1829.45L-629.448 -2036.56L3236.56 -629.448Z" stroke="white" stroke-width="1.33333" stroke-miterlimit="10"/>
<path d="M3119.37 -854.56L2054.56 3119.37L-1919.37 2054.56L-854.56 -1919.37L3119.37 -854.56Z" stroke="white" stroke-width="1.33333" stroke-miterlimit="10"/>
<path d="M2983.01 -1068.6L2268.6 2983.01L-1783.01 2268.6L-1068.6 -1783.01L2983.01 -1068.6Z" stroke="white" stroke-width="1.33333" stroke-miterlimit="10"/>
<path d="M2828.51 -1269.95L2469.95 2828.52L-1628.52 2469.95L-1269.95 -1628.52L2828.51 -1269.95Z" stroke="white" stroke-width="1.33333" stroke-miterlimit="10"/>
</g>
</g>
</g>
</g>
<path d="M231.129 428.677H289.695C331.009 428.677 351.666 442.751 351.666 470.899V536.048C351.666 562.683 331.084 576 289.922 576H231.129V428.677ZM288.333 561.018C316.481 561.018 330.555 552.543 330.555 535.594V470.672C330.555 465.224 329.42 460.608 327.15 456.825C324.88 453.042 321.702 450.242 317.616 448.426C313.53 446.761 309.292 445.626 304.904 445.021C300.515 444.264 295.37 443.886 289.468 443.886H253.148V561.018H288.333ZM430.142 578.27C396.546 578.27 379.748 567.071 379.748 544.674V501.317C379.748 488 383.531 478.466 391.098 472.715C398.816 466.813 411.225 463.862 428.326 463.862C444.519 463.862 456.171 466.662 463.284 472.261C470.548 477.86 474.18 487.546 474.18 501.317V525.606H400.405V542.177C400.405 549.744 403.053 555.192 408.35 558.521C413.647 561.85 421.819 563.515 432.866 563.515C443.308 563.515 455.642 561.699 469.867 558.067V573.73C455.944 576.757 442.703 578.27 430.142 578.27ZM453.75 512.213V494.961C453.75 488.302 451.707 483.762 447.621 481.341C443.686 478.768 436.876 477.482 427.191 477.482C417.808 477.482 410.998 478.768 406.761 481.341C402.524 483.762 400.405 488.302 400.405 494.961V512.213H453.75ZM488.97 466.132H510.535L540.953 558.294H542.088L571.598 466.132H591.347L552.984 576H528.468L488.97 466.132ZM669.411 578.27C628.248 578.27 607.667 564.953 607.667 538.318V468.629C607.667 440.481 628.248 426.407 669.411 426.407C711.027 426.407 731.836 440.405 731.836 468.402V538.318C731.836 552.543 726.085 562.758 714.584 568.963C703.082 575.168 688.025 578.27 669.411 578.27ZM669.865 563.515C696.953 563.515 710.498 555.04 710.498 538.091V467.948C710.498 449.788 696.878 440.708 669.638 440.708C656.472 440.708 646.332 442.751 639.22 446.837C632.258 450.923 628.778 457.96 628.778 467.948V538.091C628.778 555.04 642.473 563.515 669.865 563.515ZM764.458 466.132H784.661V477.936H784.888C786.553 468.553 799.038 463.862 822.343 463.862C836.266 463.862 846.783 466.813 853.896 472.715C861.009 478.466 864.565 485.881 864.565 494.961V540.134C864.565 546.641 863.581 552.316 861.614 557.159C859.798 562.002 857.377 565.785 854.35 568.509C851.626 571.082 847.843 573.125 843 574.638C838.309 576.151 833.617 577.135 828.926 577.589C824.689 578.043 819.543 578.27 813.49 578.27C806.831 578.27 800.702 577.513 795.103 576C789.655 574.335 786.25 571.99 784.888 568.963V623.216H764.458V466.132ZM813.944 564.423C821.813 564.423 827.791 563.893 831.877 562.834C836.114 561.623 839.141 559.505 840.957 556.478C842.773 553.451 843.681 548.836 843.681 542.631V502.225C843.681 495.415 842.773 490.345 840.957 487.016C839.141 483.687 836.114 481.492 831.877 480.433C827.791 479.222 821.738 478.617 813.717 478.617C805.696 478.617 799.719 479.222 795.784 480.433C791.849 481.492 789.05 483.687 787.385 487.016C785.72 490.194 784.888 495.264 784.888 502.225V542.631C784.888 548.836 785.72 553.451 787.385 556.478C789.201 559.505 792.152 561.623 796.238 562.834C800.324 563.893 806.226 564.423 813.944 564.423ZM929.51 578.27C917.857 578.27 905.297 577.362 891.828 575.546V559.883C909.534 562.758 922.246 564.196 929.964 564.196C939.649 564.196 946.611 563.288 950.848 561.472C955.085 559.505 957.204 555.948 957.204 550.803V539.68C957.204 534.989 955.615 531.659 952.437 529.692C949.259 527.725 944.114 526.741 937.001 526.741H924.516C913.166 526.741 904.464 524.395 898.411 519.704C892.509 515.013 889.558 508.43 889.558 499.955V489.74C889.558 472.488 905.902 463.862 938.59 463.862C941.011 463.862 952.134 464.467 971.959 465.678V480.433C958.49 478.314 947.065 477.255 937.682 477.255C926.937 477.255 919.598 478.314 915.663 480.433C911.728 482.552 909.761 486.108 909.761 491.102V500.409C909.761 507.824 916.495 511.532 929.964 511.532H942.676C965.83 511.532 977.407 520.158 977.407 537.41V546.944C977.407 558.294 973.472 566.39 965.603 571.233C957.734 575.924 945.703 578.27 929.51 578.27Z" fill="white"/>
<path d="M229.112 641.326H261.882L308.89 763.366L309.568 763.592L354.09 641.326H385.73V788H366.52V663.926H365.39L318.156 788H298.494L249.904 663.926H248.774V788H229.112V641.326ZM468.746 790.26C459.103 790.26 451.871 789.883 447.05 789.13C442.229 788.527 437.407 787.096 432.586 784.836C427.614 782.576 423.998 778.96 421.738 773.988C419.478 768.865 418.348 762.01 418.348 753.422V715.454C418.348 708.674 419.177 702.723 420.834 697.6C422.491 692.477 424.676 688.485 427.388 685.622C429.648 683.061 433.038 681.102 437.558 679.746C442.229 678.239 446.975 677.26 451.796 676.808C457.22 676.507 462.87 676.356 468.746 676.356C476.581 676.356 482.457 676.582 486.374 677.034C490.442 677.335 494.736 678.089 499.256 679.294C503.927 680.65 507.543 682.684 510.104 685.396C512.665 688.108 514.85 692.025 516.658 697.148C518.315 702.421 519.144 708.523 519.144 715.454V753.422C519.144 766.229 516.206 775.57 510.33 781.446C507.919 783.857 504.454 785.74 499.934 787.096C495.414 788.452 490.743 789.356 485.922 789.808C480.197 790.109 474.471 790.26 468.746 790.26ZM468.746 776.926C475.074 776.926 479.669 776.775 482.532 776.474C485.395 776.173 488.182 775.344 490.894 773.988C493.606 772.783 495.489 770.824 496.544 768.112C497.749 765.249 498.352 761.332 498.352 756.36V712.064C498.352 705.284 497.523 700.387 495.866 697.374C494.209 694.21 491.346 692.176 487.278 691.272C483.361 690.217 477.183 689.69 468.746 689.69C460.309 689.69 454.056 690.217 449.988 691.272C446.071 692.176 443.283 694.21 441.626 697.374C439.969 700.387 439.14 705.284 439.14 712.064V756.36C439.14 761.332 439.667 765.249 440.722 768.112C441.927 770.824 443.886 772.783 446.598 773.988C449.31 775.344 452.097 776.173 454.96 776.474C457.823 776.775 462.418 776.926 468.746 776.926ZM550.865 678.616H570.075V696.47C570.075 693.005 571.582 689.765 574.595 686.752C577.609 683.588 581.451 681.102 586.121 679.294C590.792 677.335 595.387 676.356 599.907 676.356H609.851V693.758H598.551C588.909 693.758 581.903 695.039 577.533 697.6C573.315 700.011 571.205 704.455 571.205 710.934V788H550.865V678.616ZM675.976 790.26C666.634 790.26 659.327 789.281 654.054 787.322C648.78 785.213 644.938 781.747 642.528 776.926C640.268 771.954 639.138 765.023 639.138 756.134V691.95H614.73V678.616H639.138V644.716H659.704V678.616H698.802V691.95H659.704V757.264C659.704 762.688 660.306 766.756 661.512 769.468C662.868 772.18 665.128 774.139 668.292 775.344C671.606 776.399 676.352 776.926 682.53 776.926C684.488 776.926 689.912 776.323 698.802 775.118V788.452C691.118 789.657 683.509 790.26 675.976 790.26ZM754.701 790.26C744.305 790.26 736.245 789.281 730.519 787.322C724.945 785.363 720.877 781.898 718.315 776.926C715.905 771.954 714.699 764.797 714.699 755.456C714.699 747.169 715.829 740.766 718.089 736.246C720.5 731.575 724.493 728.261 730.067 726.302C735.793 724.343 743.853 723.364 754.249 723.364H787.019V705.962C787.019 701.894 786.191 698.805 784.533 696.696C783.027 694.436 780.39 692.854 776.623 691.95C773.007 691.046 767.659 690.594 760.577 690.594C749.277 690.594 736.772 691.498 723.061 693.306V678.39C737.977 677.034 751.462 676.356 763.515 676.356C776.171 676.356 785.513 677.335 791.539 679.294C797.566 681.102 801.709 684.341 803.969 689.012C806.229 693.683 807.359 700.915 807.359 710.708V788H787.697V777.604C786.04 786.041 775.041 790.26 754.701 790.26ZM758.091 776.926C765.474 776.926 771.727 776.399 776.849 775.344C783.629 773.988 787.019 770.824 787.019 765.852V736.02H755.605C749.127 736.02 744.456 736.547 741.593 737.602C738.731 738.506 736.847 740.314 735.943 743.026C735.039 745.738 734.587 750.107 734.587 756.134C734.587 761.558 735.115 765.777 736.169 768.79C737.224 771.653 739.107 773.762 741.819 775.118C744.531 776.323 748.599 776.926 754.023 776.926H758.091ZM842.635 629.8H862.975V788H842.635V629.8ZM931.7 790.26C920.099 790.26 907.593 789.356 894.184 787.548V771.954C911.812 774.817 924.468 776.248 932.152 776.248C941.795 776.248 948.725 775.344 952.944 773.536C957.163 771.577 959.272 768.037 959.272 762.914V751.84C959.272 747.169 957.69 743.855 954.526 741.896C951.362 739.937 946.239 738.958 939.158 738.958H926.728C915.428 738.958 906.765 736.623 900.738 731.952C894.862 727.281 891.924 720.727 891.924 712.29V702.12C891.924 684.944 908.196 676.356 940.74 676.356C943.151 676.356 954.225 676.959 973.962 678.164V692.854C960.553 690.745 949.177 689.69 939.836 689.69C929.139 689.69 921.831 690.745 917.914 692.854C913.997 694.963 912.038 698.504 912.038 703.476V712.742C912.038 720.125 918.743 723.816 932.152 723.816H944.808C967.86 723.816 979.386 732.404 979.386 749.58V759.072C979.386 770.372 975.469 778.433 967.634 783.254C959.799 787.925 947.821 790.26 931.7 790.26Z" fill="white"/>
</g>
<defs>
<filter id="filter0_f_13_15" x="-1275.03" y="-650.026" width="3750.05" height="2500.05" filterUnits="userSpaceOnUse" color-interpolation-filters="sRGB">
<feFlood flood-opacity="0" result="BackgroundImageFix"/>
<feBlend mode="normal" in="SourceGraphic" in2="BackgroundImageFix" result="shape"/>
<feGaussianBlur stdDeviation="0.0133333" result="effect1_foregroundBlur_13_15"/>
</filter>
<clipPath id="clip0_13_15">
<rect width="1200" height="1200" fill="white"/>
</clipPath>
<clipPath id="clip1_13_15">
<rect width="3750" height="2500" fill="white" transform="translate(-1275 -650)"/>
</clipPath>
</defs>
</svg>
