<?xml version="1.0" encoding="UTF-8" standalone="no"?>
<svg
   width="1500pt"
   height="1700pt"
   viewBox="0 0 1500 1700"
   version="1.1"
   id="svg45"
   sodipodi:docname="28.svg"
   inkscape:version="1.2.2 (732a01da63, 2022-12-09)"
   xmlns:inkscape="http://www.inkscape.org/namespaces/inkscape"
   xmlns:sodipodi="http://sodipodi.sourceforge.net/DTD/sodipodi-0.dtd"
   xmlns="http://www.w3.org/2000/svg"
   xmlns:svg="http://www.w3.org/2000/svg">
  <defs
     id="defs49" />
  <sodipodi:namedview
     id="namedview47"
     pagecolor="#ffffff"
     bordercolor="#000000"
     borderopacity="0.25"
     inkscape:showpageshadow="2"
     inkscape:pageopacity="0.0"
     inkscape:pagecheckerboard="0"
     inkscape:deskcolor="#d1d1d1"
     inkscape:document-units="pt"
     showgrid="false"
     inkscape:zoom="0.11720295"
     inkscape:cx="2666.3152"
     inkscape:cy="2662.0491"
     inkscape:window-width="1920"
     inkscape:window-height="1129"
     inkscape:window-x="-8"
     inkscape:window-y="-8"
     inkscape:window-maximized="1"
     inkscape:current-layer="surface1" />
  <g
     id="surface1">
    <g
       id="g890"
       transform="translate(-1249.9551,-775.5)">
      <path
         style="fill:#75d6ff;fill-opacity:1;fill-rule:evenodd;stroke:none"
         d="M 2526.5195,1439.2695 V 2086.25 h -238.7812 l 142.9023,156.1719 260.4688,-150.3828 c 45.0117,-30.6993 57.1406,-63.8086 58.4609,-112.0078 v -719.8204 c -1.0586,-14.0507 -3.3515,-26.2695 -6.8789,-37.1015 l -216.1719,216.1601"
         id="path36" />
      <path
         style="fill:#75d6ff;fill-opacity:1;fill-rule:evenodd;stroke:none"
         d="m 2263.2305,1164.75 263.289,263.2813 216.1719,-204.9219 c -10.1211,-31.0977 -30.4297,-50.8086 -60.9023,-69.5313 L 2374.7617,976.32031 2058.4102,793.67969 c -49.0899,-23.64063 -83.8204,-17.58985 -126.2305,5.37109 l -346.2891,199.9375 156.1797,156.16012 521.1602,547.4102 V 1164.75"
         id="path38" />
      <path
         style="fill:#75d6ff;fill-opacity:1;fill-rule:nonzero;stroke:none"
         d="M 1473.3906,1811.7305 V 1164.75 h 252.0508 l -156.1797,-156.1602 -260.4609,150.3711 c -45.0117,30.6993 -57.1406,63.8086 -58.461,112.0079 v 719.8203 c 1.0586,14.039 3.3516,26.2617 6.879,37.1015 l 216.1718,-216.1601"
         id="path40" />
      <path
         style="fill:#75d6ff;fill-opacity:1;fill-rule:evenodd;stroke:none"
         d="M 1736.6719,1548.4414 V 2086.25 l -263.2813,-263.0703 -216.1718,204.7109 c 10.121,31.0899 30.4296,50.8086 60.9023,69.5313 l 307.0273,177.2578 316.3516,182.6406 c 49.0898,23.6406 83.8281,17.5899 126.2305,-5.3711 l 307.0312,-177.2695 55.8789,-32.2578 -156.1601,-156.1719 -537.8086,-537.8086"
         id="path42" />
    </g>
  </g>
</svg>
